<?xml version="1.0" encoding="utf-8"?>
<!-- Generator: Adobe Illustrator 16.0.0, SVG Export Plug-In . SVG Version: 6.00 Build 0)  -->
<!DOCTYPE svg PUBLIC "-//W3C//DTD SVG 1.1 Tiny//EN" "http://www.w3.org/Graphics/SVG/1.1/DTD/svg11-tiny.dtd">
<svg version="1.1" baseProfile="tiny" id="Layer_1" xmlns="http://www.w3.org/2000/svg" xmlns:xlink="http://www.w3.org/1999/xlink"
	 x="0px" y="0px" width="1366px" height="768px" viewBox="0 0 1366 768" xml:space="preserve">
<g>
	<g>
		<path fill="#12666C" d="M607.831,388.445l0.627,118.186l-0.627,32.508h34.108l-0.733-104.318c0,0,5.727,3.525,17.455,3.082
			c14.699-0.551,17.348-3.082,17.348-3.082l0.292,104.318h34.113l-0.631-138.918"/>
		<path fill="#F3F3F3" d="M686.437,283.507c16.888,26.841,23.347,116.713,23.347,116.713c-40.436,24.975-101.66,3.405-101.66,3.405
			c-4.455-77.418,17.843-120.119,17.843-120.119H686.437z"/>
		<g>
			<path fill="#84461E" d="M725.684,179.438c0,38.033-31.313,57.143-69.94,57.143l0,0c-38.628,0-69.25-21.151-69.25-59.187
				l-0.689-14.728c0-38.036,20.597-68.872,69.939-68.872l0,0c50.519,0,69.94,30.836,69.94,68.872V179.438z"/>
			<path fill="#84461E" d="M649.431,93.794c0,0,25.11-0.584,29.514-7.048c0,0,1.705,4.868,0,7.048c0,0,7.049,1.176,7.492-3.523
				c0,0,2.495,4.375,0,8.354"/>
		</g>
		<g>
			<path fill="#F6CAA5" d="M715.658,218.616c-8.813,35.207-26.104,54.335-59.034,54.335l0,0c-32.928,0-51.985-15.861-60.208-54.335
				v-28.195c0-32.928,12.334-63.145,53.015-58.151l6.604-1.469c32.93,0,59.623,26.693,59.623,59.621V218.616z"/>
			<polygon fill="#F6CAA5" points="641.939,264.532 641.939,283.507 656.917,292.14 671.896,283.507 671.896,264.532 			"/>
		</g>
		<g>
			<path fill="#29252A" d="M634.598,198.619c0,1.035-1.183,1.873-2.644,1.873l0,0c-1.458,0-2.641-0.838-2.641-1.873v-5.827
				c0-1.034,1.182-1.871,2.641-1.871l0,0c1.461,0,2.644,0.837,2.644,1.871V198.619z"/>
			<path fill="#29252A" d="M681.589,198.619c0,1.035-1.183,1.873-2.644,1.873l0,0c-1.457,0-2.644-0.838-2.644-1.873v-5.827
				c0-1.034,1.187-1.871,2.644-1.871l0,0c1.461,0,2.644,0.837,2.644,1.871V198.619z"/>
			<path fill="#E0AF8D" d="M649.431,215.779c0,0,0.216,0.15,0.588,0.389c0.184,0.118,0.406,0.262,0.662,0.426
				c0.247,0.168,0.553,0.321,0.849,0.521c0.326,0.16,0.648,0.372,1.012,0.539c0.179,0.087,0.362,0.176,0.549,0.267
				c0.197,0.065,0.384,0.153,0.579,0.232c0.382,0.18,0.807,0.244,1.208,0.371c0.414,0.053,0.824,0.175,1.238,0.144
				c0.416,0.057,0.819-0.038,1.226-0.079c0.405-0.053,0.792-0.217,1.187-0.308c0.368-0.175,0.734-0.351,1.096-0.504
				c0.344-0.186,0.652-0.415,0.965-0.59c0.309-0.182,0.597-0.357,0.824-0.55c0.233-0.185,0.455-0.335,0.636-0.464
				c0.367-0.253,0.596-0.393,0.596-0.393s-0.092,0.238-0.29,0.646c-0.101,0.202-0.221,0.453-0.381,0.729
				c-0.08,0.138-0.156,0.292-0.254,0.443c-0.114,0.139-0.233,0.284-0.358,0.437c-0.26,0.299-0.517,0.658-0.872,0.958
				c-0.37,0.283-0.755,0.61-1.203,0.877c-0.487,0.196-0.964,0.505-1.524,0.613c-0.557,0.121-1.131,0.235-1.713,0.184
				c-0.587,0.014-1.141-0.139-1.685-0.273c-0.27-0.071-0.514-0.199-0.762-0.303c-0.249-0.104-0.489-0.216-0.703-0.357
				c-0.219-0.133-0.438-0.255-0.64-0.396c-0.188-0.153-0.373-0.304-0.551-0.45c-0.37-0.274-0.641-0.617-0.916-0.896
				C649.762,216.79,649.431,215.779,649.431,215.779z"/>
			<path fill="#29252A" d="M621.675,229.19c0,0,34.95,14.097,69.899-4.405c0,0-3.525,15.428-17.913,24.082
				c-9.655,5.806-26.898,7.891-39.064-1.468C626.96,241.524,621.675,229.19,621.675,229.19z"/>
		</g>
		<path fill="#84461E" d="M598.751,209.979l6.916-8.103c0,0-5.97-33.949,1.541-47.14c3.035-5.326,8.949-13.611,8.949-13.611
			s16.091,14.346,27.836,16.698c0,0-7.046-8.813-7.34-14.099c0,0,21.878,15.86,42.292,16.739c0,0-4.992-3.083-8.739-8.147
			c-4.271-5.785-6.386-11.457-6.386-11.457s23.726,3.306,31.282,10.5c9.843,9.376,9.689,24.445,11.45,53.159l6.128,6.219
			l8.851-45.55l-23.421-47.77l-47-16.707l-28.844,16.707l-32.457,39.521L598.751,209.979z"/>
		<g>
			<path fill="#F6CAA5" d="M608.751,208.337c0,6.814-5.522,12.335-12.334,12.335l0,0c-6.811,0-12.333-5.521-12.333-12.335v-1.176
				c0-6.812,5.522-12.335,12.333-12.335l0,0c6.812,0,12.334,5.524,12.334,12.335V208.337z"/>
			<path fill="#F6CAA5" d="M727.994,208.337c0,6.814-5.523,12.335-12.336,12.335l0,0c-6.812,0-12.334-5.521-12.334-12.335v-1.176
				c0-6.812,5.522-12.335,12.334-12.335l0,0c6.813,0,12.336,5.524,12.336,12.335V208.337z"/>
			<g>
				<path fill="#E0AF8D" d="M592.798,204.519c0,0-0.043,0.163-0.102,0.427c-0.065,0.261-0.142,0.626-0.225,1.029
					c-0.04,0.203-0.069,0.419-0.097,0.639c-0.044,0.216-0.038,0.446-0.067,0.667c-0.009,0.449,0.001,0.892,0.087,1.324
					c0.024,0.22,0.117,0.427,0.15,0.649c0.097,0.206,0.151,0.428,0.237,0.64c0.105,0.205,0.197,0.416,0.281,0.626
					c0.112,0.195,0.215,0.392,0.308,0.583c0.175,0.389,0.396,0.685,0.507,0.941c0.122,0.247,0.187,0.408,0.187,0.408
					s-0.161-0.022-0.433-0.095c-0.134-0.039-0.303-0.083-0.483-0.156c-0.189-0.061-0.394-0.148-0.59-0.286
					c-0.206-0.126-0.435-0.265-0.658-0.438c-0.205-0.195-0.418-0.413-0.628-0.651c-0.194-0.251-0.363-0.55-0.528-0.85
					c-0.123-0.324-0.257-0.661-0.317-1.014c-0.048-0.357-0.095-0.715-0.046-1.066c0.007-0.354,0.112-0.682,0.199-0.994
					c0.12-0.3,0.233-0.591,0.396-0.83c0.146-0.249,0.321-0.457,0.489-0.637c0.33-0.364,0.67-0.595,0.92-0.732
					C592.636,204.563,592.798,204.519,592.798,204.519z"/>
				<path fill="#E0AF8D" d="M720.069,211.717c0,0,0.043-0.163,0.102-0.427c0.065-0.261,0.143-0.626,0.225-1.029
					c0.04-0.203,0.069-0.419,0.098-0.639c0.044-0.216,0.037-0.445,0.067-0.667c0.009-0.449-0.002-0.892-0.088-1.324
					c-0.025-0.22-0.117-0.427-0.15-0.649c-0.098-0.206-0.152-0.428-0.238-0.641c-0.105-0.205-0.197-0.416-0.281-0.626
					c-0.113-0.195-0.216-0.392-0.309-0.582c-0.176-0.39-0.396-0.685-0.508-0.941c-0.122-0.247-0.187-0.408-0.187-0.408
					s0.161,0.022,0.433,0.095c0.135,0.039,0.303,0.083,0.483,0.156c0.19,0.06,0.394,0.148,0.591,0.286
					c0.205,0.126,0.434,0.265,0.658,0.437c0.205,0.196,0.418,0.413,0.629,0.651c0.194,0.251,0.362,0.55,0.528,0.85
					c0.124,0.325,0.257,0.661,0.317,1.015c0.049,0.357,0.096,0.715,0.047,1.066c-0.008,0.354-0.111,0.682-0.199,0.995
					c-0.119,0.3-0.232,0.591-0.396,0.83c-0.146,0.249-0.32,0.457-0.488,0.637c-0.329,0.364-0.67,0.595-0.92,0.732
					C720.231,211.673,720.069,211.717,720.069,211.717z"/>
			</g>
		</g>
		<g>
			<path fill="#E6E6E5" d="M698.465,288.243c10.323,9.786,27.045,44.341,28.188,49.433l6.997-54.168h28.152
				c0,0-1.795,84.991-20.301,98.208c-5.069,3.626-19.988,9.447-35.104-15.101c-15.117-24.546-31.417-83.108-31.417-83.108
				S691.574,281.713,698.465,288.243z"/>
			<path fill="#F6CAA5" d="M761.803,283.507c0,0,3.271-18.094-2.309-18.094c-5.578,0-17.033,0-17.033,0v-30.506
				c0,0-6.381-7.598-9.797,0l0.986,48.601"/>
		</g>
		<g>
			<path fill="#E6E6E5" d="M625.967,283.507c0,0-11.446,44.786-13.792,60.22c-3.033,19.958-4.105,80.724-4.105,80.724h-26.485
				c0,0-2.951-43.704,6.069-81.277c3.685-15.335,8.64-38.387,19.88-49.567C615.064,286.12,625.967,283.507,625.967,283.507z"/>
			<path fill="#F6CAA5" d="M581.584,424.451c0,0,3.066,23.65,14.832,27.165h11.75l-0.096-27.165"/>
		</g>
		<g>
			<path fill="#092022" d="M641.939,539.139h-34.108c0,0-26.395,4.583-26.246,22.911h60.354V539.139z"/>
			<g>
				<rect x="581.584" y="561.131" fill="#092022" width="40.681" height="2.938"/>
				<rect x="629.9" y="561.131" fill="#092022" width="12.042" height="2.938"/>
			</g>
		</g>
		<g>
			<path fill="#092022" d="M676.301,539.139h34.113c0,0,26.393,4.583,26.244,22.911h-60.357V539.139z"/>
			<g>
				<rect x="695.982" y="561.131" fill="#092022" width="40.678" height="2.938"/>
				<rect x="676.301" y="561.131" fill="#092022" width="12.045" height="2.938"/>
			</g>
		</g>
		<g>
			<polygon fill="#E6E6E5" points="641.939,283.507 641.939,300.438 656.917,292.14 			"/>
			<polygon fill="#E6E6E5" points="671.894,283.283 671.894,300.211 656.917,291.914 			"/>
		</g>
		<path fill="#C1282D" d="M661.538,311.23c0,0,3.015-1.763,4.126-3.524c1.11-1.764,0-10.722,0-10.722l-8.747-5.07l-8.746,5.07
			c0,0-1.11,8.958,0,10.722c1.113,1.762,4.129,3.524,4.129,3.524s-7.127,50.222-7.716,55.509l12.333,9.692l12.332-10.575
			C668.665,360.571,661.538,311.23,661.538,311.23z"/>
	</g>
</g>
</svg>
